<svg width="47" height="47" viewBox="0 0 47 47" fill="none" xmlns="http://www.w3.org/2000/svg">
    <circle cx="23.5" cy="23.5" r="23" stroke="black"/>
    <path d="M24 16.9C25.16 16.9 26.1 17.84 26.1 19C26.1 20.16 25.16 21.1 24 21.1C22.84 21.1 21.9 20.16 21.9 19C21.9 17.84 22.84 16.9 24 16.9ZM24 25.9C26.97 25.9 30.1 27.36 30.1 28V29.1H17.9V28C17.9 27.36 21.03 25.9 24 25.9ZM24 15C21.79 15 20 16.79 20 19C20 21.21 21.79 23 24 23C26.21 23 28 21.21 28 19C28 16.79 26.21 15 24 15ZM24 24C21.33 24 16 25.34 16 28V31H32V28C32 25.34 26.67 24 24 24Z"
          fill="black"/>
</svg>
